<svg width="12" height="12" viewBox="0 0 12 12" fill="none" xmlns="http://www.w3.org/2000/svg">
<path fill-rule="evenodd" clip-rule="evenodd" d="M2.7345 1.2345C2.76933 1.19958 2.81071 1.17187 2.85627 1.15296C2.90183 1.13406 2.95067 1.12433 3 1.12433C3.04932 1.12433 3.09817 1.13406 3.14372 1.15296C3.18928 1.17187 3.23066 1.19958 3.2655 1.2345L7.7655 5.7345C7.80042 5.76933 7.82813 5.81072 7.84703 5.85627C7.86594 5.90183 7.87567 5.95067 7.87567 6C7.87567 6.04932 7.86594 6.09817 7.84703 6.14372C7.82813 6.18928 7.80042 6.23067 7.7655 6.2655L3.2655 10.7655C3.19508 10.8359 3.09958 10.8755 3 10.8755C2.90042 10.8755 2.80491 10.8359 2.7345 10.7655C2.66408 10.6951 2.62453 10.5996 2.62453 10.5C2.62453 10.4004 2.66408 10.3049 2.7345 10.2345L6.96975 6L2.7345 1.7655C2.69958 1.73066 2.67187 1.68928 2.65296 1.64372C2.63406 1.59817 2.62433 1.54932 2.62433 1.5C2.62433 1.45067 2.63406 1.40183 2.65296 1.35627C2.67187 1.31071 2.69958 1.26933 2.7345 1.2345V1.2345Z" fill="#FFEF77"/>
<path fill-rule="evenodd" clip-rule="evenodd" d="M5.7345 1.2345C5.76933 1.19958 5.81071 1.17187 5.85627 1.15296C5.90183 1.13406 5.95067 1.12433 6 1.12433C6.04932 1.12433 6.09816 1.13406 6.14372 1.15296C6.18928 1.17187 6.23066 1.19958 6.2655 1.2345L10.7655 5.7345C10.8004 5.76933 10.8281 5.81072 10.847 5.85627C10.8659 5.90183 10.8757 5.95067 10.8757 6C10.8757 6.04932 10.8659 6.09817 10.847 6.14372C10.8281 6.18928 10.8004 6.23067 10.7655 6.2655L6.2655 10.7655C6.19508 10.8359 6.09958 10.8755 6 10.8755C5.90042 10.8755 5.80491 10.8359 5.7345 10.7655C5.66408 10.6951 5.62452 10.5996 5.62452 10.5C5.62452 10.4004 5.66408 10.3049 5.7345 10.2345L9.96975 6L5.7345 1.7655C5.69958 1.73066 5.67187 1.68928 5.65296 1.64372C5.63406 1.59817 5.62433 1.54932 5.62433 1.5C5.62433 1.45067 5.63406 1.40183 5.65296 1.35627C5.67187 1.31071 5.69958 1.26933 5.7345 1.2345V1.2345Z" fill="#FFEF77"/>
</svg>

