<svg width="24" height="24" viewBox="0 0 24 24" fill="none" xmlns="http://www.w3.org/2000/svg">
<path d="M9.00003 9.00003H13.1505V11.127H13.2105C13.788 10.0905 15.201 9.00003 17.3085 9.00003C21.69 9.00003 22.5 11.727 22.5 15.2745V22.5H18.1725V16.095C18.1725 14.568 18.141 12.6015 15.9225 12.6015C13.6695 12.6015 13.3245 14.265 13.3245 15.984V22.5H9.00003V9.00003ZM1.50004 9.00003H6.00004V22.5H1.50004V9.00003ZM6.00004 5.25004C5.99984 5.84697 5.76251 6.41938 5.34028 6.84134C4.91804 7.26329 4.34547 7.50023 3.74854 7.50004C3.1516 7.49984 2.57919 7.26251 2.15723 6.84028C1.73528 6.41804 1.49834 5.84547 1.49854 5.24854C1.49873 4.6516 1.73606 4.07919 2.15829 3.65723C2.36737 3.4483 2.61554 3.2826 2.88865 3.16958C3.16176 3.05656 3.45446 2.99844 3.75004 2.99854C4.04561 2.99863 4.33827 3.05695 4.6113 3.17015C4.88434 3.28335 5.1324 3.44922 5.34134 3.6583C5.55027 3.86737 5.71597 4.11554 5.82899 4.38865C5.94201 4.66176 6.00013 4.95446 6.00004 5.25004V5.25004Z" />
</svg>
