<svg width="32" height="32" viewBox="0 0 32 32" fill="none" xmlns="http://www.w3.org/2000/svg">
<g clip-path="url(#clip0_7_23)">
<path d="M31.396 14.574L17.424 0.603995C17.2327 0.412598 17.0056 0.260769 16.7556 0.15718C16.5056 0.0535919 16.2376 0.000274658 15.967 0.000274658C15.6964 0.000274658 15.4284 0.0535919 15.1784 0.15718C14.9284 0.260769 14.7013 0.412598 14.51 0.603995L11.61 3.50399L15.29 7.18399C15.724 7.03581 16.1909 7.01263 16.6375 7.11709C17.084 7.22156 17.4922 7.44945 17.8155 7.77478C18.1387 8.10011 18.364 8.50975 18.4656 8.95697C18.5672 9.40418 18.541 9.87095 18.39 10.304L21.936 13.852C22.4606 13.6673 23.0325 13.6667 23.5575 13.8504C24.0825 14.0341 24.5293 14.3911 24.8243 14.8626C25.1193 15.3341 25.2449 15.892 25.1806 16.4445C25.1162 16.9969 24.8656 17.511 24.47 17.902C24.0696 18.3049 23.5417 18.5562 22.9765 18.6131C22.4113 18.6701 21.8439 18.529 21.3712 18.214C20.8985 17.899 20.5498 17.4297 20.3847 16.8862C20.2196 16.3427 20.2484 15.7587 20.466 15.234L17.16 11.926V20.632C17.6625 20.8807 18.0646 21.2942 18.2992 21.8035C18.5339 22.3127 18.5869 22.887 18.4494 23.4306C18.312 23.9742 17.9923 24.4543 17.5439 24.7908C17.0954 25.1273 16.5451 25.3 15.9847 25.2799C15.4244 25.2599 14.8878 25.0485 14.4645 24.6808C14.0411 24.3132 13.7566 23.8115 13.6582 23.2595C13.5599 22.7075 13.6537 22.1384 13.9241 21.6472C14.1945 21.156 14.625 20.7723 15.144 20.56V11.774C14.8446 11.6513 14.5724 11.4706 14.3432 11.2422C14.1139 11.0138 13.9322 10.7423 13.8083 10.4434C13.6845 10.1444 13.6211 9.82389 13.6217 9.50031C13.6223 9.17673 13.687 8.85647 13.812 8.55799L10.186 4.92999L0.606001 14.51C0.414605 14.7013 0.262775 14.9284 0.159187 15.1784C0.0555984 15.4284 0.00228119 15.6964 0.00228119 15.967C0.00228119 16.2376 0.0555984 16.5056 0.159187 16.7556C0.262775 17.0056 0.414605 17.2327 0.606001 17.424L14.578 31.396C14.7693 31.5874 14.9964 31.7392 15.2464 31.8428C15.4964 31.9464 15.7644 31.9997 16.035 31.9997C16.3056 31.9997 16.5736 31.9464 16.8236 31.8428C17.0736 31.7392 17.3007 31.5874 17.492 31.396L31.398 17.49C31.7841 17.1034 32.0009 16.5794 32.0009 16.033C32.0009 15.4866 31.7841 14.9626 31.398 14.576" />
</g>
<defs>
<clipPath id="clip0_7_23">
<rect width="32" height="32" fill="white"/>
</clipPath>
</defs>
</svg>
